<svg width="73" height="73" viewBox="0 0 73 73" fill="none" xmlns="http://www.w3.org/2000/svg">
<path fill-rule="evenodd" clip-rule="evenodd" d="M72 19.94C72 19.22 71.99 18.49 71.97 17.77C71.93 16.19 71.83 14.6 71.55 13.04C71.27 11.46 70.8 9.98 70.07 8.54C69.35 7.13 68.41 5.83 67.29 4.71C66.17 3.59 64.87 2.65 63.46 1.93C62.02 1.2 60.55 0.73 58.97 0.45C57.41 0.17 55.82 0.08 54.24 0.03C53.51 0.02 52.78 0.01 52.06 0C51.2 0 50.34 0 49.48 0H22.52C21.66 0 20.8 0 19.94 0C19.22 0 18.49 0.01 17.77 0.03C16.19 0.07 14.6 0.17 13.04 0.45C11.46 0.74 9.98 1.2 8.55 1.94C7.13 2.66 5.84 3.6 4.72 4.72C3.6 5.84 2.65 7.13 1.93 8.55C1.2 9.99 0.73 11.46 0.45 13.05C0.17 14.61 0.08 16.2 0.03 17.78C0.02 18.5 0.01 19.22 0 19.94C0 20.8 0 21.66 0 22.52V49.47C0 50.33 0 51.19 0 52.05C0 52.77 0.01 53.5 0.03 54.22C0.07 55.8 0.17 57.39 0.45 58.95C0.73 60.53 1.2 62.01 1.93 63.45C2.65 64.86 3.59 66.16 4.71 67.28C5.83 68.4 7.13 69.34 8.54 70.06C9.98 70.79 11.45 71.26 13.03 71.54C14.59 71.82 16.18 71.91 17.76 71.96C18.48 71.98 19.21 71.99 19.93 71.99C20.79 72 21.65 71.99 22.51 71.99H49.46C50.32 71.99 51.18 71.99 52.04 71.99C52.76 71.99 53.49 71.98 54.21 71.96C55.79 71.92 57.38 71.82 58.94 71.54C60.52 71.26 62 70.79 63.43 70.06C64.84 69.34 66.14 68.4 67.26 67.28C68.38 66.16 69.32 64.87 70.04 63.45C70.77 62.01 71.24 60.54 71.52 58.95C71.8 57.39 71.89 55.8 71.94 54.22C71.96 53.5 71.97 52.77 71.97 52.05C71.98 51.19 71.97 50.33 71.97 49.47V22.52C72 21.66 72 20.8 72 19.94ZM52.71 46.85C52.71 47.76 52.7 48.59 52.51 49.5C52.32 50.39 51.98 51.22 51.46 51.97C50.94 52.72 50.27 53.33 49.49 53.79C48.7 54.26 47.87 54.52 46.99 54.7C45.33 55.03 44.2 55.11 43.13 54.9C42.1 54.69 41.23 54.22 40.53 53.58C39.5 52.63 38.85 51.35 38.71 50.02C38.55 48.45 39.07 46.78 40.24 45.54C40.83 44.92 41.58 44.43 42.58 44.04C43.62 43.64 44.77 43.39 46.54 43.04C47.01 42.95 47.47 42.85 47.94 42.76C48.55 42.64 49.08 42.48 49.5 41.96C49.93 41.44 49.93 40.8 49.93 40.18V24.32C49.93 23.11 49.39 22.78 48.23 23C47.4 23.16 29.61 26.75 29.61 26.75C28.61 26.99 28.25 27.32 28.25 28.57V51.8C28.25 52.71 28.2 53.54 28.01 54.45C27.82 55.34 27.48 56.17 26.96 56.92C26.44 57.67 25.77 58.28 24.99 58.74C24.2 59.21 23.37 59.48 22.49 59.66C20.83 59.99 19.7 60.07 18.63 59.86C17.6 59.65 16.73 59.17 16.03 58.53C15 57.58 14.4 56.3 14.25 54.97C14.09 53.4 14.56 51.73 15.74 50.49C16.33 49.87 17.08 49.38 18.08 48.99C19.12 48.59 20.27 48.34 22.04 47.99C22.51 47.9 22.97 47.8 23.44 47.71C24.05 47.59 24.58 47.43 25 46.91C25.42 46.39 25.47 45.78 25.47 45.16C25.47 40.24 25.47 18.38 25.47 18.38C25.47 18.02 25.5 17.78 25.52 17.66C25.61 17.1 25.83 16.61 26.24 16.27C26.58 15.99 27.02 15.79 27.57 15.67H27.58L49 11.33C49.19 11.29 50.73 11.02 50.91 11C52.07 10.9 52.72 11.66 52.72 12.89L52.71 46.85Z" fill="#40B0BF"/>
</svg>
