<svg width="73" height="73" viewBox="0 0 73 73" fill="none" xmlns="http://www.w3.org/2000/svg">
<path d="M63.875 0H9.125C4.0854 0 0 4.0854 0 9.125V63.875C0 68.9146 4.0854 73 9.125 73H63.875C68.9146 73 73 68.9146 73 63.875V9.125C73 4.0854 68.9146 0 63.875 0Z" fill="#40B0BF"/>
<path d="M36.5 54.75C33.8469 54.75 31.4128 54.3029 29.1909 53.4063C27.0209 52.5445 25.0436 51.2604 23.3737 49.6286C21.741 47.9589 20.4562 45.9816 19.5937 43.8114C18.6971 41.5872 18.25 39.1508 18.25 36.5C18.25 33.8469 18.6971 31.4128 19.5937 29.1909C20.4479 27.0311 21.7333 25.0681 23.3714 23.4216C25.0303 21.7636 27.0096 20.4612 29.1886 19.5937C31.4128 18.6971 33.8492 18.25 36.5 18.25C39.0208 18.25 41.3727 18.6971 43.5605 19.5937C45.7395 20.4612 47.7188 21.7636 49.3777 23.4216C51.0731 25.0519 52.4116 27.0164 53.3083 29.1909C54.2687 31.4105 54.75 33.8469 54.75 36.5C54.75 39.1531 54.3029 41.5872 53.4063 43.8091C52.539 45.9882 51.2365 47.9675 49.5784 49.6263C47.9322 51.2653 45.9691 52.5515 43.8091 53.4063C41.5895 54.3029 39.1531 54.75 36.5 54.75ZM36.5 52.1152C38.6216 52.1152 40.6108 51.7342 42.4677 50.97C44.3027 50.2217 45.9747 49.1238 47.3907 47.7374C48.815 46.3131 49.9465 44.6236 50.7213 42.7643C51.5197 40.8754 51.9144 38.7881 51.9144 36.5C51.9144 34.3442 51.5334 32.323 50.7738 30.4319C50.0337 28.5772 48.9344 26.8871 47.539 25.4587C46.1635 24.0224 44.504 22.8881 42.6662 22.1281C40.8093 21.3 38.7539 20.8848 36.5 20.8848C33.5161 20.8848 30.8471 21.5647 28.4928 22.9243C26.197 24.2265 24.3049 26.1367 23.0247 28.4449C21.6947 30.7649 21.0331 33.45 21.0331 36.5C21.0331 38.6558 21.4141 40.677 22.176 42.5681C22.938 44.457 24.001 46.1132 25.3584 47.5413C26.7649 48.9764 28.4369 50.1246 30.2813 50.9221C32.1725 51.7159 34.2438 52.1152 36.4977 52.1152H36.5ZM30.0349 47.3907V25.6595H37.3943C40.1135 25.6595 42.1027 26.2389 43.362 27.4001C44.6212 28.527 45.2532 30.2174 45.2532 32.4713C45.2532 34.6933 44.5391 36.4338 43.1133 37.6954C41.6876 38.9523 39.947 39.5842 37.8916 39.5842H33.815V47.3907H30.0349ZM37.2984 36.5C38.5919 36.5 39.6025 36.2034 40.3325 35.6057C41.0625 34.9738 41.4252 33.9632 41.4252 32.5717C41.4252 31.2463 41.0944 30.3018 40.4306 29.7361C39.769 29.1407 38.706 28.8418 37.2482 28.8418H33.8173V36.5H37.2984Z" fill="#F9FAFB"/>
</svg>
