<svg width="5000" height="1700" viewBox="0 0 5000 1700" fill="none" xmlns="http://www.w3.org/2000/svg">
<g clip-path="url(#clip0_122_304)">
<path d="M67.5029 646V76.6984H199.256V538.646H484.72V646H67.5029ZM825.322 655.759C780.32 655.759 738.571 648.44 700.076 633.801C662.122 619.161 629.049 598.558 600.855 571.991C573.203 545.423 551.515 514.247 535.792 478.463C520.61 442.678 513.019 403.64 513.019 361.349C513.019 319.058 520.61 280.02 535.792 244.236C551.515 208.451 573.474 177.275 601.668 150.708C629.862 124.14 662.936 103.537 700.889 88.8977C738.842 74.2586 780.049 66.939 824.509 66.939C869.511 66.939 910.717 74.2586 948.128 88.8977C986.082 103.537 1018.88 124.14 1046.54 150.708C1074.73 177.275 1096.69 208.451 1112.41 244.236C1128.14 279.478 1136 318.516 1136 361.349C1136 403.64 1128.14 442.949 1112.41 479.276C1096.69 515.061 1074.73 546.237 1046.54 572.804C1018.88 598.829 986.082 619.161 948.128 633.801C910.717 648.44 869.782 655.759 825.322 655.759ZM824.509 543.526C849.992 543.526 873.306 539.188 894.452 530.513C916.139 521.838 935.116 509.368 951.382 493.102C967.647 476.836 980.118 457.588 988.793 435.358C998.01 413.129 1002.62 388.459 1002.62 361.349C1002.62 334.24 998.01 309.57 988.793 287.34C980.118 265.11 967.647 245.862 951.382 229.597C935.658 213.331 916.952 200.86 895.265 192.185C873.577 183.51 849.992 179.173 824.509 179.173C799.026 179.173 775.44 183.51 753.753 192.185C732.607 200.86 713.902 213.331 697.636 229.597C681.37 245.862 668.629 265.11 659.411 287.34C650.736 309.57 646.399 334.24 646.399 361.349C646.399 387.917 650.736 412.586 659.411 435.358C668.629 457.588 681.099 476.836 696.823 493.102C713.088 509.368 732.065 521.838 753.753 530.513C775.44 539.188 799.026 543.526 824.509 543.526ZM1357.01 332.884H1630.27V438.612H1357.01V332.884ZM1366.77 646H1235.02V76.6984H1665.25V182.426H1366.77V646ZM1876.34 646V184.052H1694.16V76.6984H2190.27V184.052H2008.09V646H1876.34ZM67.5029 1637V1067.7H199.256V1529.65H484.72V1637H67.5029ZM486.689 1637L740.435 1067.7H870.561L1125.12 1637H986.861L778.66 1134.39H830.71L621.695 1637H486.689ZM613.562 1515.01L648.534 1414.97H941.317L977.102 1515.01H613.562ZM1184.19 1637V1067.7H1462.33C1533.9 1067.7 1587.58 1081.25 1623.36 1108.36C1659.69 1135.47 1677.85 1171.26 1677.85 1215.72C1677.85 1245.54 1670.53 1271.56 1655.89 1293.79C1641.25 1315.48 1621.19 1332.29 1595.71 1344.22C1570.23 1356.14 1540.95 1362.11 1507.87 1362.11L1523.33 1328.76C1559.11 1328.76 1590.83 1334.73 1618.48 1346.66C1646.13 1358.04 1667.55 1375.12 1682.73 1397.89C1698.45 1420.67 1706.32 1448.59 1706.32 1481.66C1706.32 1530.46 1687.07 1568.68 1648.57 1596.34C1610.08 1623.45 1553.42 1637 1478.6 1637H1184.19ZM1315.12 1537.78H1468.84C1502.99 1537.78 1528.75 1532.36 1546.1 1521.51C1563.99 1510.13 1572.94 1492.23 1572.94 1467.84C1572.94 1443.98 1563.99 1426.36 1546.1 1414.97C1528.75 1403.04 1502.99 1397.08 1468.84 1397.08H1305.37V1301.11H1446.06C1478.05 1301.11 1502.45 1295.69 1519.26 1284.85C1536.61 1273.46 1545.29 1256.38 1545.29 1233.61C1545.29 1211.38 1536.61 1194.84 1519.26 1184C1502.45 1172.61 1478.05 1166.92 1446.06 1166.92H1315.12V1537.78ZM1927.24 1297.05H2201.32V1399.52H1927.24V1297.05ZM1937 1531.27H2246.87V1637H1806.06V1067.7H2236.29V1173.43H1937V1531.27ZM2351.7 1637V1067.7H2483.45V1529.65H2768.91V1637H2351.7Z" fill="black"/>
<rect width="14" height="1700" transform="translate(3032)" fill="black"/>
<g clip-path="url(#clip1_122_304)">
<path d="M3300 0H5000V1700H3300V0ZM4150 1530C4330.35 1530 4503.31 1458.36 4630.83 1330.83C4758.36 1203.31 4830 1030.35 4830 850C4830 669.653 4758.36 496.692 4630.83 369.167C4503.31 241.643 4330.35 170 4150 170C3969.65 170 3796.69 241.643 3669.17 369.167C3541.64 496.692 3470 669.653 3470 850C3470 1030.35 3541.64 1203.31 3669.17 1330.83C3796.69 1458.36 3969.65 1530 4150 1530ZM4150 1105C4082.37 1105 4017.51 1078.13 3969.69 1030.31C3921.87 982.49 3895 917.63 3895 850C3895 782.37 3921.87 717.51 3969.69 669.688C4017.51 621.866 4082.37 595 4150 595C4217.63 595 4282.49 621.866 4330.31 669.688C4378.13 717.51 4405 782.37 4405 850C4405 917.63 4378.13 982.49 4330.31 1030.31C4282.49 1078.13 4217.63 1105 4150 1105Z" fill="black"/>
</g>
</g>
<defs>
<clipPath id="clip0_122_304">
<rect width="5000" height="1700" fill="white"/>
</clipPath>
<clipPath id="clip1_122_304">
<rect width="1700" height="1700" fill="white" transform="translate(3300)"/>
</clipPath>
</defs>
</svg>
