<svg width="72" height="72" viewBox="0 0 72 72" fill="none" xmlns="http://www.w3.org/2000/svg">
<path fill-rule="evenodd" clip-rule="evenodd" d="M33.6325 0.0743152C22.5356 0.783588 12.4272 6.5868 6.15395 15.8499C0.673193 23.9426 -1.23894 33.8153 0.789651 43.5462C1.89069 48.8281 4.46568 54.2342 7.96294 58.6063C9.12524 60.0594 11.9719 62.9072 13.3686 64.0139C18.8016 68.3191 24.6114 70.7865 31.5233 71.7241C33.4508 71.9855 38.4951 71.9862 40.4337 71.7252C44.8539 71.1302 48.4818 70.0098 52.3084 68.0578C54.442 66.9695 55.7623 66.151 57.5706 64.7955C60.3608 62.7038 62.7057 60.3592 64.7898 57.5772C66.1462 55.7664 66.9645 54.4462 68.0522 52.3141C70.0041 48.4875 71.1245 44.8596 71.7195 40.4393C71.9805 38.5008 71.9798 33.4565 71.7184 31.529C70.7808 24.6171 68.3134 18.8073 64.0082 13.3743C62.9015 11.9776 60.0538 9.13094 58.6007 7.96863C51.5074 2.29486 42.6594 -0.502716 33.6325 0.0743152ZM34.7726 19.1534C44.3244 19.719 52.6955 21.828 59.2608 25.3229C61.6662 26.6033 62.2978 27.3656 62.3087 29.0018C62.3133 29.7008 62.2706 29.9157 62.0292 30.4072C61.149 32.1996 59.1356 32.8458 57.3561 31.9071C52.991 29.6048 50.5609 28.6565 46.353 27.6133C41.7636 26.4756 37.5111 25.9307 32.1099 25.7885C26.3709 25.6374 20.7922 26.2734 15.6379 27.6664C14.9064 27.8641 14.5257 27.9153 14.1364 27.8684C12.9821 27.7295 11.9276 26.9519 11.4276 25.8709C11.0729 25.1041 11.0519 23.9825 11.3788 23.2587C11.6249 22.7138 12.3022 21.9348 12.7944 21.6306C13.5637 21.1552 17.6657 20.1917 20.9138 19.7234C22.5679 19.4849 25.5943 19.1934 27.1909 19.1187C28.8799 19.0398 33.1852 19.0595 34.7726 19.1534ZM33.1737 31.5324C41.5279 32.0507 49.5491 34.3892 55.6832 38.0947C56.7045 38.7117 57.3113 39.6668 57.3113 40.6579C57.3113 41.5795 56.7447 42.5519 55.9291 43.0298C54.9139 43.6247 53.8798 43.5449 52.6214 42.7747C49.932 41.1286 45.7976 39.4782 42.0448 38.5527C37.8628 37.5213 34.3063 37.0984 29.8321 37.1002C25.4104 37.1022 21.623 37.5823 17.9552 38.606C16.9044 38.8993 16.5023 38.9674 16.0786 38.9237C14.6848 38.7801 13.6036 37.6067 13.5827 36.215C13.571 35.4288 13.8444 34.7568 14.4036 34.1976C14.952 33.6493 15.5073 33.4383 18.0499 32.8129C22.6186 31.6891 28.15 31.2207 33.1737 31.5324ZM33.7978 43.2923C39.5357 43.7357 44.219 44.9832 48.9044 47.3164C52.0983 48.9068 52.6712 49.3827 52.753 50.5141C52.8115 51.3223 52.5783 51.9415 52.0432 52.3996C51.2194 53.1047 50.417 53.1566 49.3481 52.574C45.5753 50.5175 43.1291 49.5235 39.9397 48.7509C36.8425 48.0007 34.0947 47.6983 30.3886 47.7001C26.4794 47.702 23.612 48.0046 19.2901 48.8718C17.515 49.228 17.158 49.2717 16.8043 49.1765C15.0992 48.7174 14.5033 46.7605 15.6758 45.4703C16.0687 45.0379 16.6082 44.8521 18.6932 44.4312C21.5422 43.856 25.0104 43.3858 27.3456 43.258C28.8623 43.175 32.5324 43.1945 33.7978 43.2923Z" fill="#40B0BF"/>
</svg>
