<svg width="249" height="249" viewBox="0 0 249 249" fill="none" xmlns="http://www.w3.org/2000/svg">
<rect width="249" height="249" rx="50" fill="#40B0BF"/>
<path d="M178.772 76.8244C177.662 76.2401 176.582 75.5995 175.535 74.9051C172.49 72.8548 169.699 70.4389 167.221 67.7095C161.02 60.4825 158.705 53.1508 157.852 48.0176H157.886C157.173 43.7568 157.468 41 157.512 41H129.272V152.242C129.272 153.736 129.272 155.212 129.21 156.67C129.21 156.852 129.193 157.019 129.183 157.215C129.183 157.295 129.183 157.379 129.165 157.462C129.165 157.483 129.165 157.504 129.165 157.525C128.868 161.517 127.612 165.372 125.508 168.753C123.404 172.134 120.517 174.936 117.1 176.914C113.54 178.977 109.512 180.06 105.416 180.054C92.2577 180.054 81.5938 169.125 81.5938 155.627C81.5938 142.129 92.2577 131.2 105.416 131.2C107.906 131.197 110.382 131.597 112.75 132.383L112.784 103.091C105.595 102.145 98.2914 102.727 91.3341 104.8C84.3768 106.873 77.9169 110.393 72.3617 115.137C67.4941 119.445 63.4019 124.586 60.2693 130.327C59.0772 132.421 54.5793 140.834 54.0346 154.489C53.6921 162.24 55.977 170.269 57.0663 173.588V173.658C57.7514 175.612 60.4063 182.281 64.7329 187.902C68.2216 192.412 72.3435 196.373 76.9658 199.659V199.589L77.0343 199.659C90.7059 209.123 105.864 208.502 105.864 208.502C108.488 208.393 117.278 208.502 127.261 203.682C138.332 198.34 144.636 190.38 144.636 190.38C148.662 185.624 151.864 180.204 154.104 174.352C156.659 167.509 157.512 159.302 157.512 156.021V97.0049C157.855 97.2142 162.418 100.289 162.418 100.289C162.418 100.289 168.992 104.581 179.248 107.376C186.606 109.365 196.52 109.784 196.52 109.784V81.2248C193.046 81.6087 185.993 80.492 178.772 76.8244Z" fill="white"/>
</svg>
