<svg width="72" height="72" viewBox="0 0 72 72" fill="none" xmlns="http://www.w3.org/2000/svg">
<path fill-rule="evenodd" clip-rule="evenodd" d="M5.06117 5.06119C0.151395 9.971 0.00451263 17.7836 0.00012207 33.1196C13.7435 33.1195 22.3241 27.2192 29.8508 22.0437C35.7308 18.0005 40.9675 14.3996 47.52 14.3996C57.2727 14.3996 65.7882 21.2953 70.3036 24.9517C70.9403 25.4673 71.4975 25.9186 71.9675 26.2769C71.825 15.3428 71.058 9.18036 66.9388 5.06119C61.8776 2.40326e-06 53.7317 1.67605e-06 37.4399 2.51777e-07L34.5599 0C18.2682 4.06889e-06 10.1224 3.43323e-06 5.06117 5.06119ZM32.4432 71.9996C33.1331 72 33.8386 72 34.56 72H37.4399H37.44C38.1614 72 38.8668 72 39.5566 71.9996H32.4432Z" fill="#138F9F"/>
<path fill-rule="evenodd" clip-rule="evenodd" d="M0.000137524 33.1196C13.7435 33.1195 22.3242 27.2192 29.8508 22.0437C35.7308 18.0005 40.9675 14.3996 47.52 14.3996C57.2727 14.3996 65.7883 21.2953 70.3035 24.9517C70.9403 25.4673 71.4975 25.9186 71.9675 26.2769C71.9999 28.7775 71.9999 31.5276 71.9999 34.56V37.44C71.9999 53.7317 71.9999 61.8776 66.9388 66.9388C62.1016 71.7759 54.4469 71.9901 39.5561 71.9996H32.4438C17.5531 71.9901 9.89832 71.7759 5.06119 66.9388C-2.05994e-06 61.8776 -1.43846e-06 53.7317 1.53561e-09 37.44L7.31096e-07 34.56C7.31096e-07 34.0726 7.23756e-07 33.5925 0.000137524 33.1196Z" fill="#40B0BF"/>
<path d="M55.8004 36.7021C55.8004 34.9226 57.2609 33.4801 59.0404 33.4801C60.8198 33.4801 62.2804 34.9226 62.2804 36.7021V49.6981C62.2804 51.4775 60.8198 52.9201 59.0404 52.9201C57.2609 52.9201 55.8004 51.4775 55.8004 49.6981V36.7021Z" fill="white"/>
<path d="M44.2807 28.4221C44.2807 26.6427 45.7412 25.2001 47.5207 25.2001C49.3002 25.2001 50.7607 26.6427 50.7607 28.4221V57.9781C50.7607 59.7576 49.3002 61.2001 47.5207 61.2001C45.7412 61.2001 44.2807 59.7576 44.2807 57.9781V28.4221Z" fill="white"/>
<path d="M32.7607 36.7021C32.7607 34.9226 34.2212 33.4801 36.0007 33.4801C37.7802 33.4801 39.2407 34.9226 39.2407 36.7021V49.6981C39.2407 51.4775 37.7802 52.9201 36.0007 52.9201C34.2212 52.9201 32.7607 51.4775 32.7607 49.6981V36.7021Z" fill="white"/>
<path d="M21.2393 41.3819C21.2393 39.6025 22.6998 38.1599 24.4792 38.1599C26.2587 38.1599 27.7192 39.6025 27.7192 41.3819V45.0179C27.7192 46.7974 26.2587 48.2399 24.4792 48.2399C22.6998 48.2399 21.2393 46.7974 21.2393 45.0179V41.3819Z" fill="white"/>
<path d="M9.71925 41.3819C9.71925 39.6025 11.1798 38.1599 12.9593 38.1599C14.7387 38.1599 16.1993 39.6025 16.1993 41.3819V45.0179C16.1993 46.7974 14.7387 48.2399 12.9593 48.2399C11.1798 48.2399 9.71925 46.7974 9.71925 45.0179V41.3819Z" fill="white"/>
</svg>
