<svg width="72" height="72" viewBox="0 0 72 72" fill="none" xmlns="http://www.w3.org/2000/svg">
<path d="M14.8291 7.35945C20.1261 3.43444 26.3866 1.06174 32.9116 0.47216V11.2694C28.6938 11.8162 24.6656 13.431 21.22 15.9842C16.9055 19.1812 13.7327 23.6801 12.1695 28.8174C10.6063 33.9547 10.7356 39.4584 12.5382 44.5165C14.3407 49.5748 17.7212 53.9201 22.181 56.911C26.6408 59.9018 31.9437 61.3802 37.3076 61.1284C42.6716 60.8762 47.8124 58.9069 51.9722 55.5111C56.1316 52.1149 59.0897 47.472 60.4102 42.2671C61.3313 38.6365 61.4212 34.8665 60.6999 31.232L69.7667 23.9429L69.7606 23.8841C72.2081 30.6167 72.5821 37.9412 70.8153 44.9066C68.9289 52.3423 64.7031 58.975 58.7607 63.8265C52.8183 68.6775 45.4743 71.4908 37.8115 71.8508C30.1488 72.2108 22.5731 70.0988 16.202 65.8259C9.83092 61.5535 5.00164 55.3462 2.42654 48.12C-0.14857 40.894 -0.333194 33.0316 1.8999 25.6926C4.13299 18.3536 8.66557 11.9266 14.8291 7.35945Z" fill="#40B0BF"/>
<path d="M62.9302 12.3989L62.9681 12.494L56.9092 22.1172C54.7056 18.852 51.7532 16.1342 48.2976 14.2105V36.1099C48.2976 42.8289 42.8509 48.2758 36.1319 48.2758C29.4129 48.2758 23.9661 42.8289 23.9661 36.1099C23.9661 29.391 29.4129 23.9441 36.1319 23.9441C38.65 23.9441 40.9894 24.7092 42.9304 26.0195V0.973297C50.8289 2.49251 57.8033 6.60886 62.9302 12.3989Z" fill="#40B0BF"/>
</svg>
