<svg width="249" height="249" viewBox="0 0 249 249" fill="none" xmlns="http://www.w3.org/2000/svg">
<rect width="249" height="249" rx="50" fill="#40B0BF"/>
<path d="M139.464 139.464C127.679 151.625 126.821 166.786 125.804 200C156.768 200 178.143 199.893 189.179 189.179C199.893 178.143 200 155.75 200 125.804C166.786 126.875 151.625 127.679 139.464 139.464M50 125.804C50 155.75 50.1071 178.143 60.8214 189.179C71.8571 199.893 93.2321 200 124.196 200C123.125 166.786 122.321 151.625 110.536 139.464C98.375 127.679 83.2143 126.821 50 125.804M124.196 50C93.2857 50 71.8571 50.1071 60.8214 60.8214C50.1071 71.8571 50 94.25 50 124.196C83.2143 123.125 98.375 122.321 110.536 110.536C122.321 98.375 123.179 83.2143 124.196 50M139.464 110.536C127.679 98.375 126.821 83.2143 125.804 50C156.768 50 178.143 50.1071 189.179 60.8214C199.893 71.8571 200 94.25 200 124.196C166.786 123.125 151.625 122.321 139.464 110.536" fill="white"/>
</svg>
